<svg width="147" height="37" fill="none" xmlns="http://www.w3.org/2000/svg"><g clip-path="url(#clip0_0_538)" fill="#fff"><g clip-path="url(#clip1_0_538)"><path d="M9.34 2.693a.618.618 0 01.264-.834 14.969 14.969 0 0114.225.354.618.618 0 01.226.847l-7.122 12.222a.616.616 0 01-.534.307h-.016a.622.622 0 01-.534-.335L9.338 2.694zm6.677 16.155L9.507 6.284a.62.62 0 00-.833-.266 14.806 14.806 0 1013.62 26.293.62.62 0 00.264-.833l-6.541-12.63zm7.63 11.874l.05.099a.63.63 0 00.359.31c.063.02.13.03.198.024a.787.787 0 00.285-.062c.225-.111.444-.235.656-.371.63-.366 1.23-.78 1.796-1.239h-3.988l.644 1.239zm-1.288-2.478h5.982c.385-.386.741-.8 1.066-1.238h-7.692l.644 1.238zm-1.276-2.477h9.203c.254-.397.481-.811.681-1.238H20.44l.644 1.238zm-1.288-2.477h11.717c.165-.404.305-.818.421-1.239H19.151l.644 1.239zm-1.289-2.477h13.737c.074-.41.136-.818.173-1.239H17.875l.631 1.239zm6.64-15.657a.575.575 0 00-.471-.062.595.595 0 00-.384.285l-.335.57h2.391c-.386-.286-.787-.55-1.201-.793zm2.7 2.032h-4.608l-.718 1.238h6.503c-.367-.436-.76-.85-1.177-1.238zm2.105 2.477H21.79l-.719 1.239h9.637a10.67 10.67 0 00-.756-1.24zm1.35 2.477H20.353l-.718 1.239h12.15a11.64 11.64 0 00-.482-1.239zm.83 2.478H18.904l-.719 1.238h14.17c-.049-.417-.123-.83-.222-1.239zm.347 2.477H17.466l-.297.508a.6.6 0 00-.013.594l.075.136h15.272c.013-.123.013-.26.013-.384 0-.285-.013-.57-.038-.854z"/><path d="M9.055 5.407a.844.844 0 00-1.178-.346 15.708 15.708 0 0014.64 27.74.844.844 0 00.378-1.168l-6.92-13.113-6.92-13.113z"/></g><path d="M54.616 6.487c1.721 0 3.188.276 4.4.829 1.21.552 2.135 1.35 2.773 2.39.637 1.042.956 2.306.956 3.794s-.319 2.752-.956 3.794c-.638 1.041-1.563 1.838-2.774 2.39-1.211.553-2.678.83-4.4.83H50.44v7.013h-5.483V6.487h9.659zm-.86 9.914c1.147 0 2.008-.234 2.581-.701.595-.489.893-1.222.893-2.2 0-.977-.298-1.7-.893-2.168-.574-.488-1.434-.733-2.582-.733H50.44v5.802h3.315zm12.112 11.126v-15.94h4.782l.223 3.443c.404-1.19.999-2.114 1.785-2.773.808-.659 1.828-.988 3.06-.988.404 0 .744.032 1.02.095.298.064.532.15.702.255l-.542 4.463a3.419 3.419 0 00-.829-.19 6.137 6.137 0 00-1.18-.096c-.637 0-1.232.138-1.784.414a3.27 3.27 0 00-1.34 1.243c-.318.532-.478 1.212-.478 2.04v8.034h-5.419zm21.29.319c-1.764 0-3.295-.33-4.591-.989a7.07 7.07 0 01-2.965-2.837c-.701-1.232-1.052-2.72-1.052-4.463 0-1.742.351-3.23 1.052-4.463a7.117 7.117 0 012.933-2.837c1.275-.659 2.731-.988 4.368-.988 1.678 0 3.102.33 4.271.988 1.19.638 2.094 1.53 2.71 2.678.616 1.126.924 2.423.924 3.889 0 .382-.01.765-.031 1.148a9.035 9.035 0 01-.096.956H82.057v-2.901H92.29l-2.582.988c0-1.275-.234-2.253-.701-2.933-.447-.68-1.148-1.02-2.105-1.02-.68 0-1.264.16-1.753.478-.467.32-.829.819-1.084 1.499-.233.68-.35 1.551-.35 2.614 0 1.041.138 1.891.414 2.55.276.638.67 1.105 1.18 1.403.51.276 1.126.414 1.849.414.807 0 1.445-.16 1.912-.478a2.82 2.82 0 001.084-1.339l4.336 1.435a5.09 5.09 0 01-1.562 2.327c-.723.616-1.594 1.084-2.614 1.402a10.32 10.32 0 01-3.156.479zm17.377 0c-1.594 0-3.082-.255-4.463-.765-1.36-.532-2.487-1.286-3.38-2.264l2.55-2.996c.532.68 1.234 1.253 2.105 1.721.892.446 1.881.67 2.965.67.658 0 1.2-.096 1.625-.287.425-.192.638-.49.638-.893 0-.298-.106-.531-.319-.701-.212-.192-.637-.351-1.275-.479l-2.231-.446c-1.998-.404-3.422-.999-4.272-1.785-.83-.808-1.243-1.86-1.243-3.156 0-.871.265-1.7.796-2.487.532-.807 1.35-1.455 2.455-1.944 1.105-.51 2.519-.765 4.24-.765 1.615 0 3.039.233 4.272.701 1.232.468 2.21 1.148 2.933 2.04l-2.583 2.933c-.51-.638-1.168-1.137-1.976-1.498s-1.615-.542-2.423-.542c-.51 0-.946.053-1.307.16-.34.084-.595.212-.765.382a.865.865 0 00-.255.637c0 .277.128.521.383.734.276.19.775.36 1.498.51l2.901.573c1.636.298 2.816.84 3.538 1.626.723.787 1.084 1.732 1.084 2.838 0 1.04-.276 1.976-.829 2.805-.552.829-1.381 1.488-2.486 1.976-1.105.468-2.497.702-4.176.702zm16.966-21.327v15.333c0 .765.18 1.318.542 1.658.382.319.903.478 1.562.478.51 0 .945-.053 1.307-.16a3.36 3.36 0 001.02-.541l.574 3.347c-.532.383-1.201.68-2.009.893a9.724 9.724 0 01-2.486.319c-1.212 0-2.264-.17-3.156-.51-.872-.34-1.552-.882-2.04-1.626-.468-.744-.712-1.732-.734-2.965V8.017l5.42-1.498zm4.75 5.069v3.857H113.34v-3.857h12.911zm10.09-.32c1.679 0 3.145.33 4.399.989a6.824 6.824 0 012.965 2.837c.723 1.233 1.084 2.72 1.084 4.463 0 1.743-.361 3.241-1.084 4.495a7.07 7.07 0 01-2.965 2.837c-1.254.638-2.72.957-4.399.957-1.636 0-3.092-.32-4.367-.957a7.274 7.274 0 01-2.997-2.837c-.701-1.254-1.052-2.752-1.052-4.495 0-1.742.351-3.23 1.052-4.463a7.014 7.014 0 012.997-2.837c1.275-.659 2.731-.988 4.367-.988zm0 3.858c-.616 0-1.148.149-1.594.446-.446.298-.786.776-1.02 1.435-.234.659-.351 1.509-.351 2.55 0 1.042.117 1.892.351 2.55.234.638.574 1.116 1.02 1.435.446.297.978.446 1.594.446.638 0 1.18-.148 1.626-.446.446-.319.786-.797 1.02-1.434.234-.66.351-1.51.351-2.55 0-1.042-.117-1.892-.351-2.551-.234-.659-.574-1.137-1.02-1.435-.446-.297-.988-.446-1.626-.446z"/></g><defs><clipPath id="clip0_0_538"><path fill="#fff" transform="translate(.18 -4.473)" d="M0 0h146.513v41.29H0z"/></clipPath><clipPath id="clip1_0_538"><path fill="#fff" transform="translate(-.011 -.32)" d="M0 0h32.745v34.835H0z"/></clipPath></defs></svg>